name C:/MyDriveSym/Projects/mobilecap/Data\Session20210823_0002\mocap\ForceDataProcessed\walkingTS2_forces.mot
datacolumns 19
datarows 29
range 0.95950000 0.97350000
endheader 
time	R_ground_force_vx	R_ground_force_vy	R_ground_force_vz	R_ground_force_px	R_ground_force_py	R_ground_force_pz	R_ground_torque_x	R_ground_torque_y	R_ground_torque_z	L_ground_force_vx	L_ground_force_vy	L_ground_force_vz	L_ground_force_px	L_ground_force_py	L_ground_force_pz	L_ground_torque_x	L_ground_torque_y	L_ground_torque_z	
          0.95950000	          0.00000000	          0.00000000	          0.00000000	          1.36349500	          0.00000000	         -0.10177300	          0.00000000	          0.00000000	          0.00000000	         65.53677500	        615.63521100	         64.35095700	          0.93898200	          0.00600000	         -0.36043300	          0.00000000	          2.41946500	          0.00000000	
          0.96000000	          0.00000000	          0.00000000	          0.00000000	          1.36486800	          0.00000000	         -0.10170500	          0.00000000	          0.00000000	          0.00000000	         65.88410300	        616.31164000	         64.48122000	          0.93905300	          0.00600000	         -0.36043000	          0.00000000	          2.41497800	          0.00000000	
          0.96050000	          0.00000000	          0.00000000	          0.00000000	          1.36624100	          0.00000000	         -0.10163700	          0.00000000	          0.00000000	          0.00000000	         66.23126800	        616.97900100	         64.61020700	          0.93912400	          0.00600000	         -0.36042700	          0.00000000	          2.41050200	          0.00000000	
          0.96100000	          0.00000000	          0.00000000	          0.00000000	          1.36761400	          0.00000000	         -0.10156900	          0.00000000	          0.00000000	          0.00000000	         66.57825000	        617.63719100	         64.73790100	          0.93919600	          0.00600000	         -0.36042400	          0.00000000	          2.40603800	          0.00000000	
          0.96150000	          0.00000000	          0.00000000	          0.00000000	          1.36898800	          0.00000000	         -0.10150000	          0.00000000	          0.00000000	          0.00000000	         66.92502900	        618.28610700	         64.86428400	          0.93926700	          0.00600000	         -0.36042000	          0.00000000	          2.40158600	          0.00000000	
          0.96200000	          0.00000000	          0.00000000	          0.00000000	          1.37036100	          0.00000000	         -0.10143200	          0.00000000	          0.00000000	          0.00000000	         67.27158600	        618.92564400	         64.98933900	          0.93933900	          0.00600000	         -0.36041700	          0.00000000	          2.39714500	          0.00000000	
          0.96250000	          0.00000000	          0.00000000	          0.00000000	          1.37173400	          0.00000000	         -0.10136400	          0.00000000	          0.00000000	          0.00000000	         67.61790200	        619.55570200	         65.11305000	          0.93941100	          0.00600000	         -0.36041300	          0.00000000	          2.39271700	          0.00000000	
          0.96300000	          0.00000000	          0.00000000	          0.00000000	          1.37310700	          0.00000000	         -0.10129600	          0.00000000	          0.00000000	          0.00000000	         67.96395500	        620.17617700	         65.23539900	          0.93948300	          0.00600000	         -0.36040900	          0.00000000	          2.38830100	          0.00000000	
          0.96350000	          0.00000000	          0.00000000	          0.00000000	          1.37448000	          0.00000000	         -0.10122800	          0.00000000	          0.00000000	          0.00000000	         68.30972700	        620.78696800	         65.35637100	          0.93955500	          0.00600000	         -0.36040500	          0.00000000	          2.38389900	          0.00000000	
          0.96400000	          0.00000000	          0.00000000	          0.00000000	          1.37585300	          0.00000000	         -0.10115900	          0.00000000	          0.00000000	          0.00000000	         68.65519700	        621.38797400	         65.47594700	          0.93962800	          0.00600000	         -0.36040100	          0.00000000	          2.37951000	          0.00000000	
          0.96450000	          0.00000000	          0.00000000	          0.00000000	          1.37722600	          0.00000000	         -0.10109100	          0.00000000	          0.00000000	          0.00000000	         69.00034600	        621.97909400	         65.59411300	          0.93970100	          0.00600000	         -0.36039700	          0.00000000	          2.37513400	          0.00000000	
          0.96500000	          0.00000000	          0.00000000	          0.00000000	          1.37859900	          0.00000000	         -0.10102300	          0.00000000	          0.00000000	          0.00000000	         69.34515200	        622.56022900	         65.71085000	          0.93977400	          0.00600000	         -0.36039300	          0.00000000	          2.37077300	          0.00000000	
          0.96550000	          0.00000000	          0.00000000	          0.00000000	          1.37997200	          0.00000000	         -0.10095500	          0.00000000	          0.00000000	          0.00000000	         69.68959600	        623.13127700	         65.82614400	          0.93984700	          0.00600000	         -0.36038900	          0.00000000	          2.36642500	          0.00000000	
          0.96600000	          0.00000000	          0.00000000	          0.00000000	          1.38134500	          0.00000000	         -0.10088700	          0.00000000	          0.00000000	          0.00000000	         70.03365700	        623.69214100	         65.93997700	          0.93992000	          0.00600000	         -0.36038400	          0.00000000	          2.36209300	          0.00000000	
          0.96650000	          0.00000000	          0.00000000	          0.00000000	          1.38271800	          0.00000000	         -0.10081800	          0.00000000	          0.00000000	          0.00000000	         70.37731500	        624.24272200	         66.05233300	          0.93999400	          0.00600000	         -0.36037900	          0.00000000	          2.35777500	          0.00000000	
          0.96700000	          0.00000000	          0.00000000	          0.00000000	          1.38409100	          0.00000000	         -0.10075000	          0.00000000	          0.00000000	          0.00000000	         70.72054800	        624.78292100	         66.16319700	          0.94006800	          0.00600000	         -0.36037500	          0.00000000	          2.35347200	          0.00000000	
          0.96750000	          0.00000000	          0.00000000	          0.00000000	          1.38546500	          0.00000000	         -0.10068200	          0.00000000	          0.00000000	          0.00000000	         71.06333700	        625.31264100	         66.27255200	          0.94014200	          0.00600000	         -0.36037000	          0.00000000	          2.34918500	          0.00000000	
          0.96800000	          0.00000000	          0.00000000	          0.00000000	          1.38683800	          0.00000000	         -0.10061400	          0.00000000	          0.00000000	          0.00000000	         71.40566000	        625.83178600	         66.38038200	          0.94021600	          0.00600000	         -0.36036500	          0.00000000	          2.34491400	          0.00000000	
          0.96850000	          0.00000000	          0.00000000	          0.00000000	          1.38821100	          0.00000000	         -0.10054500	          0.00000000	          0.00000000	          0.00000000	         71.74749600	        626.34025800	         66.48667100	          0.94029100	          0.00600000	         -0.36036000	          0.00000000	          2.34065900	          0.00000000	
          0.96900000	          0.00000000	          0.00000000	          0.00000000	          1.38958400	          0.00000000	         -0.10047700	          0.00000000	          0.00000000	          0.00000000	         72.08882400	        626.83796300	         66.59140400	          0.94036500	          0.00600000	         -0.36035500	          0.00000000	          2.33642000	          0.00000000	
          0.96950000	          6.45235200	         20.48154600	          3.36302600	          1.39095700	          0.00600000	         -0.10040900	          0.00000000	          0.29004000	          0.00000000	         72.42962300	        627.32480500	         66.69456500	          0.94044000	          0.00600000	         -0.36034900	          0.00000000	          2.33219800	          0.00000000	
          0.97000000	          6.45742800	         21.09878000	          3.36277900	          1.39233000	          0.00600000	         -0.10034100	          0.00000000	          0.28780900	          0.00000000	         72.76987100	        627.80068900	         66.79613900	          0.94051500	          0.00600000	         -0.36034400	          0.00000000	          2.32799200	          0.00000000	
          0.97050000	          6.46152600	         21.72364900	          3.36208600	          1.39333700	          0.00600000	         -0.10034700	          0.00000000	          0.28570700	          0.00000000	         73.10954800	        628.26552200	         66.89611000	          0.94059100	          0.00600000	         -0.36033800	          0.00000000	          2.32380400	          0.00000000	
          0.97100000	          6.46462700	         22.35618900	          3.36094000	          1.39430900	          0.00600000	         -0.10034900	          0.00000000	          0.28372500	          0.00000000	         73.44863100	        628.71921100	         66.99446200	          0.94066600	          0.00600000	         -0.36033200	          0.00000000	          2.31963400	          0.00000000	
          0.97150000	          6.46671200	         22.99643700	          3.35933200	          1.39524900	          0.00600000	         -0.10035000	          0.00000000	          0.28185700	          0.00000000	         73.78709800	        629.16166200	         67.09118100	          0.94074200	          0.00600000	         -0.36032600	          0.00000000	          2.31548100	          0.00000000	
          0.97200000	          6.46776400	         23.64442900	          3.35725500	          1.39615800	          0.00600000	         -0.10034700	          0.00000000	          0.28009400	          0.00000000	         74.12492900	        629.59278400	         67.18625100	          0.94081800	          0.00600000	         -0.36032100	          0.00000000	          2.31134700	          0.00000000	
          0.97250000	          6.46776400	         24.30020000	          3.35470100	          1.39703800	          0.00600000	         -0.10034300	          0.00000000	          0.27843200	          0.00000000	         74.46210000	        630.01248600	         67.27965800	          0.94089400	          0.00600000	         -0.36031400	          0.00000000	          2.30723000	          0.00000000	
          0.97300000	          6.46669200	         24.96378700	          3.35166100	          1.39789200	          0.00600000	         -0.10033600	          0.00000000	          0.27686300	          0.00000000	         74.79859100	        630.42067700	         67.37138700	          0.94097100	          0.00600000	         -0.36030800	          0.00000000	          2.30313300	          0.00000000	
          0.97350000	          6.46453000	         25.63522300	          3.34812800	          1.39871900	          0.00600000	         -0.10032700	          0.00000000	          0.27538300	          0.00000000	         75.13437800	        630.81726700	         67.46142200	          0.94104700	          0.00600000	         -0.36030200	          0.00000000	          2.29905400	          0.00000000	
